<svg version="1.2" xmlns="http://www.w3.org/2000/svg" viewBox="0 0 120 36" width="120" height="36">
	<title>logo-svg</title>
	<style>
		tspan { white-space:pre } 
		.s0 { fill: #ff5151 } 
		.t1 { font-size: 24px;fill: #ff5151;font-weight: 400;font-family: "DejaVuSans", "DejaVu Sans" } 
	</style>
	<path id="Layer" fill-rule="evenodd" class="s0" d="m34.9 21.3c0.4 2.9-0.3 5.8-1.8 8.3-1.5 2.6-3.9 4.5-6.6 5.5-2.8 1.1-5.8 1.2-8.6 0.3q-0.4-0.1-0.8 0c-2.8 0.9-5.8 0.8-8.6-0.3-2.7-1-5.1-2.9-6.6-5.5-1.5-2.5-2.2-5.4-1.8-8.3 0.3-2.9 1.7-5.7 3.8-7.7v-0.1q0 0 0 0l13.6-13.5 13.6 13.5q0 0 0 0v0.1c2.1 2 3.5 4.8 3.8 7.7zm-21.5-3.7q0.1-0.1 0.2-0.1 0.1 0 0.1 0.1 0.1 0 0.1 0.1 0 0.1 0 0.2c-1.8 3.2-0.3 7.9 2.3 10.5h0.1c0.3 0.4 0.8 0.6 1.3 0.6 0.5 0 1-0.2 1.4-0.6 2.6-2.6 4.1-7.3 2.3-10.5q0-0.1 0-0.2 0-0.1 0.1-0.1 0-0.1 0.1-0.1 0.1 0 0.2 0.1l4.7 4.9q0.1 0.1 0.1 0.2 0.1 0.1 0.1 0.3c0 2.4-0.7 4.7-2 6.7q0 0.1 0 0.2 0 0.1 0 0.1 0.1 0.1 0.2 0.1 0.1 0 0.1 0 1.5-0.6 2.6-1.7c1.5-1.5 2.3-3.5 2.3-5.6 0-2-0.8-4.1-2.3-5.5l-9.9-9.9-9.9 9.9c-1.5 1.4-2.3 3.5-2.3 5.5 0 2.1 0.8 4.1 2.3 5.6q1.1 1.1 2.6 1.7 0 0 0.1 0 0.1 0 0.2-0.1 0 0 0-0.1 0-0.1 0-0.2c-1.3-2-2-4.3-2-6.7q0-0.2 0.1-0.3 0-0.1 0.1-0.2z"/>
	<text id="Humo" style="transform: matrix(1,0,0,1,47,25)" >
		<tspan x="0" y="0" class="t1">H</tspan><tspan  y="0" class="t1">u</tspan><tspan  y="0" class="t1">m</tspan><tspan  y="0" class="t1">o</tspan><tspan  y="0" class="t1">
</tspan>
	</text>
</svg>